<svg xmlns="http://www.w3.org/2000/svg" width="792" height="792"><path d="M594 99h-49.5c0-54.673-66.479-99-148.5-99S247.5 44.327 247.5 99H198c-54.673 0-99 44.327-99 99v495c0 54.673 44.327 99 99 99h396c54.673 0 99-44.327 99-99V198c0-54.673-44.327-99-99-99zM396 49.5c54.673 0 99 15.32 99 49.5H297c0-34.18 44.327-49.5 99-49.5zM643.5 693c0 27.324-22.176 49.5-49.5 49.5H198c-27.349 0-49.5-22.176-49.5-49.5v-49.5h495V693zm0-99h-495V198c0-27.349 22.151-49.5 49.5-49.5h49.5V297H297V148.5h198V297h49.5V148.5H594c27.349 0 49.5 22.151 49.5 49.5v396z"/></svg>