<svg xmlns="http://www.w3.org/2000/svg" width="32" height="32"><path d="M22 0c-.309 0-.616.019-.922.047-.112.01-.223.026-.334.041a9.538 9.538 0 0 0-.96.168 10.61 10.61 0 0 0-.458.118c-.145.04-.288.079-.43.125-.129.042-.254.093-.381.14-.334.125-.66.266-.977.424-.062.031-.128.059-.189.092-.166.088-.326.186-.489.282-.088.054-.178.105-.266.162-.156.1-.306.207-.456.315-.044.033-.092.063-.138.097A9.966 9.966 0 0 0 10 0C4.486 0 0 4.485 0 10c0 9.051 5.82 17.238 15.568 21.9a.983.983 0 0 0 .864 0C26.18 27.238 32 19.051 32 10c0-5.515-4.486-10-10-10zm-6 29.889C7.225 25.533 2 18.129 2 10c0-4.411 3.589-8 8-8a7.96 7.96 0 0 1 4.502 1.406A9.943 9.943 0 0 0 12 10a1 1 0 1 0 2 0 7.974 7.974 0 0 1 3.184-6.373c.037-.026.073-.055.11-.082a7.61 7.61 0 0 1 .489-.33c.046-.029.092-.058.139-.085a7.39 7.39 0 0 1 .493-.271l.176-.085c.16-.076.322-.148.487-.213.072-.029.146-.055.222-.082.155-.056.312-.109.47-.155a7.56 7.56 0 0 1 .287-.074c.144-.036.285-.073.432-.102.132-.024.266-.042.398-.061.113-.017.226-.036.342-.048C21.482 2.015 21.74 2 22 2c4.411 0 8 3.589 8 8 0 8.129-5.225 15.533-14 19.889zM22 4a1 1 0 1 0 0 2c2.206 0 4 1.794 4 4a1 1 0 1 0 2 0c0-3.309-2.691-6-6-6z"/></svg>