<?xml version="1.0"?>
<!--Icons from directory ""-->
<svg xmlns="http://www.w3.org/2000/svg" width="300" height="2228" viewBox="0 0 300 2228">
<svg viewBox="0 0 792 792" id="bag">
<path d="M594 99h-49.5c0-54.673-66.479-99-148.5-99S247.5 44.327 247.5 99H198c-54.673 0-99 44.327-99 99v495c0 54.673 44.327 99 99 99h396c54.673 0 99-44.327 99-99V198c0-54.673-44.327-99-99-99zM396 49.5c54.673 0 99 15.32 99 49.5H297c0-34.18 44.327-49.5 99-49.5zM643.5 693c0 27.324-22.176 49.5-49.5 49.5H198c-27.349 0-49.5-22.176-49.5-49.5v-49.5h495V693zm0-99h-495V198c0-27.349 22.151-49.5 49.5-49.5h49.5V297H297V148.5h198V297h49.5V148.5H594c27.349 0 49.5 22.151 49.5 49.5v396z"/></svg>
<svg viewBox="0 0 612 612" id="chat">
<path d="M401.625 325.125h-191.25c-10.557 0-19.125 8.568-19.125 19.125s8.568 19.125 19.125 19.125h191.25c10.557 0 19.125-8.568 19.125-19.125s-8.568-19.125-19.125-19.125zm38.25-114.75h-267.75c-10.557 0-19.125 8.568-19.125 19.125s8.568 19.125 19.125 19.125h267.75c10.557 0 19.125-8.568 19.125-19.125s-8.568-19.125-19.125-19.125zM306 0C137.012 0 0 119.875 0 267.75c0 84.514 44.848 159.751 114.75 208.826V612l134.047-81.339c18.552 3.061 37.638 4.839 57.203 4.839 169.008 0 306-119.875 306-267.75S475.008 0 306 0zm0 497.25c-22.338 0-43.911-2.601-64.643-7.019l-90.041 54.123 1.205-88.701C83.5 414.133 38.25 345.513 38.25 267.75c0-126.741 119.875-229.5 267.75-229.5s267.75 102.759 267.75 229.5S453.875 497.25 306 497.25z" fill="#c7b299"/></svg>
<svg viewBox="0 0 311.185 311.185" id="coffee">
<path d="M298.5 288.279a8 8 0 0 1-8 8H8a8 8 0 0 1 0-16h282.5a8 8 0 0 1 8 8zM141.13 156.953a7.971 7.971 0 0 0 5.457 2.151 8 8 0 0 0 5.46-13.849c-13.715-12.8-10.781-38.815 1.006-53.524 15.993-19.955 19.513-55.531-1.007-74.675a7.998 7.998 0 0 0-11.307.393 8 8 0 0 0 .393 11.307c12.32 11.493 12.046 37.235-.564 52.97-8.288 10.343-13.242 24.204-13.592 38.03-.385 15.11 4.643 28.321 14.154 37.197zm170.055-16.619v15.347c0 22.001-17.897 39.899-39.897 39.899H253.43c-12.123 33.706-44.416 57.878-82.245 57.878h-43.867c-48.174 0-87.366-39.191-87.366-87.364V86.729a8 8 0 0 1 8-8h51.315c10.416-15.835 9.95-39.184-1.614-49.974a8 8 0 0 1 10.916-11.698c20.515 19.143 16.996 54.718 1.007 74.673-11.791 14.711-14.726 40.726-1.007 53.524a8.002 8.002 0 0 1-10.915 11.7c-9.514-8.877-14.542-22.087-14.159-37.198.219-8.615 2.225-17.244 5.712-25.027H55.952v71.365c0 39.351 32.015 71.364 71.366 71.364h43.867c39.351 0 71.366-32.014 71.366-71.364V94.729H182.4a8 8 0 0 1 0-16h68.151a8 8 0 0 1 8 8v13.706h12.738c21.998 0 39.896 17.898 39.896 39.899zm-16 0c0-13.178-10.72-23.899-23.897-23.899H258.55v63.146h12.738c13.177 0 23.897-10.722 23.897-23.899v-15.348z" fill="#c7b299"/></svg>
<svg viewBox="0 0 451 451" id="glass">
    <path d="M447.05 428l-109.6-109.6c29.4-33.8 47.2-77.9 47.2-126.1C384.65 86.2 298.35 0 192.35 0 86.25 0 .05 86.3.05 192.3s86.3 192.3 192.3 192.3c48.2 0 92.3-17.8 126.1-47.2L428.05 447c2.6 2.6 6.1 4 9.5 4s6.9-1.3 9.5-4c5.2-5.2 5.2-13.8 0-19zM26.95 192.3c0-91.2 74.2-165.3 165.3-165.3 91.2 0 165.3 74.2 165.3 165.3s-74.1 165.4-165.3 165.4c-91.1 0-165.3-74.2-165.3-165.4z"/>
</svg>
<svg  id="heart">
<path d="M22 0c-.309 0-.616.019-.922.047-.112.01-.223.026-.334.041a9.538 9.538 0 0 0-.96.168 10.61 10.61 0 0 0-.458.118c-.145.04-.288.079-.43.125-.129.042-.254.093-.381.14-.334.125-.66.266-.977.424-.062.031-.128.059-.189.092-.166.088-.326.186-.489.282-.088.054-.178.105-.266.162-.156.1-.306.207-.456.315-.044.033-.092.063-.138.097A9.966 9.966 0 0 0 10 0C4.486 0 0 4.485 0 10c0 9.051 5.82 17.238 15.568 21.9a.983.983 0 0 0 .864 0C26.18 27.238 32 19.051 32 10c0-5.515-4.486-10-10-10zm-6 29.889C7.225 25.533 2 18.129 2 10c0-4.411 3.589-8 8-8a7.96 7.96 0 0 1 4.502 1.406A9.943 9.943 0 0 0 12 10a1 1 0 1 0 2 0 7.974 7.974 0 0 1 3.184-6.373c.037-.026.073-.055.11-.082a7.61 7.61 0 0 1 .489-.33c.046-.029.092-.058.139-.085a7.39 7.39 0 0 1 .493-.271l.176-.085c.16-.076.322-.148.487-.213.072-.029.146-.055.222-.082.155-.056.312-.109.47-.155a7.56 7.56 0 0 1 .287-.074c.144-.036.285-.073.432-.102.132-.024.266-.042.398-.061.113-.017.226-.036.342-.048C21.482 2.015 21.74 2 22 2c4.411 0 8 3.589 8 8 0 8.129-5.225 15.533-14 19.889zM22 4a1 1 0 1 0 0 2c2.206 0 4 1.794 4 4a1 1 0 1 0 2 0c0-3.309-2.691-6-6-6z"/></svg>
<svg viewBox="0 0 129 129" id="left-arrow">
<g>
<path d="M64.5 122.6c32 0 58.1-26 58.1-58.1s-26-58-58.1-58-58 26-58 58 26 58.1 58 58.1zm0-108c27.5 0 49.9 22.4 49.9 49.9S92 114.4 64.5 114.4 14.6 92 14.6 64.5 37 14.6 64.5 14.6z"/>
<path d="M70 93.5c.8.8 1.8 1.2 2.9 1.2 1 0 2.1-.4 2.9-1.2 1.6-1.6 1.6-4.2 0-5.8L52.3 64.2l23.5-23.5c1.6-1.6 1.6-4.2 0-5.8s-4.2-1.6-5.8 0L43.6 61.3c-.8.8-1.2 1.8-1.2 2.9s.4 2.1 1.2 2.9L70 93.5z"/>
</g></svg>
<svg viewBox="0 0 107.373 107.373" id="pencil">
<g>
<path d="M106.317 37.463a3.58 3.58 0 0 0-5.071 0L70.013 68.692 26.104 88.029l-6.764-6.768 19.344-43.905L69.909 6.123a3.58 3.58 0 0 0 0-5.071 3.58 3.58 0 0 0-5.071 0L32.657 33.226.004 107.373 74.14 74.716l32.177-32.181a3.582 3.582 0 0 0 0-5.072z"/>
<path d="M60.815 62.265a3.597 3.597 0 0 0 5.074 0l30.07-30.07a3.58 3.58 0 0 0 0-5.075 3.58 3.58 0 0 0-5.075 0l-30.07 30.07a3.594 3.594 0 0 0 .001 5.075zm-7.848-7.852a3.59 3.59 0 0 0 5.074 0l30.073-30.07a3.586 3.586 0 0 0 0-5.075 3.58 3.58 0 0 0-5.075 0l-30.073 30.07a3.587 3.587 0 0 0 .001 5.075zm-7.852-7.852a3.59 3.59 0 0 0 5.074 0l30.073-30.07a3.586 3.586 0 0 0 0-5.075 3.58 3.58 0 0 0-5.075 0l-30.073 30.07a3.594 3.594 0 0 0 .001 5.075z"/></g></svg>
<svg viewBox="0 0 502.672 502.672" id="portfolio">
<g>
<path d="M138.29 168.019h258.806v-16.178c0-13.352-10.936-24.267-24.267-24.267H266.011v-14.129c0-20.104-16.351-36.39-36.39-36.39h-62.124c-9.707 0-18.831 3.796-25.734 10.699-6.903 6.903-10.678 15.962-10.678 25.691v14.15H24.267C10.915 127.574 0 138.488 0 151.841v216.722l81.581-165.275c9.901-20.127 34.319-35.269 56.709-35.269zm17.063-54.574c0-3.214 1.316-6.256 3.581-8.542a11.859 11.859 0 0 1 8.542-3.602H229.6c6.709 0 12.123 5.436 12.123 12.144v14.15h-86.369v-14.15z"/>
<path d="M486.874 192.243H138.29c-13.331 0-29.099 9.793-34.945 21.743L9.599 403.895c-5.91 11.929.194 21.722 13.525 21.722h348.584c13.331 0 29.121-9.772 34.988-21.722l93.725-189.909c5.888-11.95-.173-21.743-13.547-21.743z"/></g></svg>
<svg  viewBox="0 0 612 612" id="right-arrow">
<path d="M277.58 179.679l-.057.077c-5.125-4.705-11.857-7.631-19.335-7.631-15.835 0-28.688 12.852-28.688 28.688 0 8.377 3.634 15.835 9.352 21.076l-.057.077L330.48 306l-91.686 84.055.057.076c-5.718 5.221-9.352 12.68-9.352 21.057 0 15.836 12.852 28.688 28.688 28.688 7.478 0 14.21-2.926 19.335-7.611l.057.076 114.75-105.188c5.91-5.451 9.295-13.101 9.295-21.152s-3.385-15.702-9.295-21.152L277.58 179.679zM306 0C137.012 0 0 137.012 0 306s137.012 306 306 306 306-137.012 306-306S474.988 0 306 0zm0 554.625C168.912 554.625 57.375 443.088 57.375 306S168.912 57.375 306 57.375 554.625 168.912 554.625 306 443.088 554.625 306 554.625z" fill="#d4d4d4"/></svg>
<svg viewBox="0 0 612 612" id="tool">
<path d="M592.875 516.375H19.125C8.568 516.375 0 524.943 0 535.5s8.568 19.125 19.125 19.125h573.75c10.557 0 19.125-8.568 19.125-19.125s-8.568-19.125-19.125-19.125zm-267.75-382.5v-38.25h38.25c10.557 0 19.125-8.568 19.125-19.125s-8.568-19.125-19.125-19.125h-114.75c-10.557 0-19.125 8.568-19.125 19.125s8.568 19.125 19.125 19.125h38.25s-.134 39.818 0 38.25C126.837 143.801 0 277.332 0 439.875V459c0 10.557 8.568 19.125 19.125 19.125h573.75c10.557 0 19.125-8.568 19.125-19.125v-19.125c0-162.543-126.837-296.074-286.875-306zm-286.875 306C38.25 292 158.125 172.125 306 172.125S573.75 292 573.75 439.875H38.25z" fill="#c7b299"/></svg>
<svg viewBox="0 0 32 32" id="user">
<path d="M14.5 22c4.137 0 7.5-4.094 7.5-9.125 0-5.032-3.363-9.125-7.5-9.125-2.046 0-3.956.979-5.378 2.755C7.753 8.217 6.999 10.479 7 12.875 7 17.907 10.364 22 14.5 22zm0-16.25c3.032 0 5.5 3.196 5.5 7.125C20 16.805 17.532 20 14.5 20S9 16.805 8.998 12.875c0-3.929 2.468-7.125 5.502-7.125zM20.799 21a1 1 0 1 0 0 2A6.209 6.209 0 0 1 27 29.202a.8.8 0 0 1-.801.798h-23.4A.8.8 0 0 1 2 29.202 6.207 6.207 0 0 1 8.199 23a1 1 0 1 0 0-2C3.678 21 0 24.68 0 29.202A2.802 2.802 0 0 0 2.799 32h23.4A2.803 2.803 0 0 0 29 29.202C29 24.68 25.32 21 20.799 21zM15.231 2.639a4.404 4.404 0 0 1 2.269-.638c3.032 0 5.5 3.196 5.5 7.124 0 .705-.078 1.396-.232 2.057a.999.999 0 1 0 1.946.457c.188-.811.286-1.656.286-2.514C25 4.094 21.637 0 17.5 0a6.464 6.464 0 0 0-3.286.917 1 1 0 0 0 1.017 1.722zM24 17a1 1 0 1 0 0 2c3.419 0 6 2.85 6 6.268a.769.769 0 0 1-.068.326 1 1 0 0 0 1.828.812c.159-.359.24-.742.24-1.141C32 20.747 28.521 17 24 17z" fill="#c7b299"/></svg></svg>
