<svg xmlns="http://www.w3.org/2000/svg" width="512" height="512" viewBox="0 0 612 612"><path d="M592.875 516.375H19.125C8.568 516.375 0 524.943 0 535.5s8.568 19.125 19.125 19.125h573.75c10.557 0 19.125-8.568 19.125-19.125s-8.568-19.125-19.125-19.125zm-267.75-382.5v-38.25h38.25c10.557 0 19.125-8.568 19.125-19.125s-8.568-19.125-19.125-19.125h-114.75c-10.557 0-19.125 8.568-19.125 19.125s8.568 19.125 19.125 19.125h38.25s-.134 39.818 0 38.25C126.837 143.801 0 277.332 0 439.875V459c0 10.557 8.568 19.125 19.125 19.125h573.75c10.557 0 19.125-8.568 19.125-19.125v-19.125c0-162.543-126.837-296.074-286.875-306zm-286.875 306C38.25 292 158.125 172.125 306 172.125S573.75 292 573.75 439.875H38.25z" fill="#c7b299"/></svg>