<svg xmlns="http://www.w3.org/2000/svg" width="512" height="512" viewBox="0 0 32 32"><path d="M14.5 22c4.137 0 7.5-4.094 7.5-9.125 0-5.032-3.363-9.125-7.5-9.125-2.046 0-3.956.979-5.378 2.755C7.753 8.217 6.999 10.479 7 12.875 7 17.907 10.364 22 14.5 22zm0-16.25c3.032 0 5.5 3.196 5.5 7.125C20 16.805 17.532 20 14.5 20S9 16.805 8.998 12.875c0-3.929 2.468-7.125 5.502-7.125zM20.799 21a1 1 0 1 0 0 2A6.209 6.209 0 0 1 27 29.202a.8.8 0 0 1-.801.798h-23.4A.8.8 0 0 1 2 29.202 6.207 6.207 0 0 1 8.199 23a1 1 0 1 0 0-2C3.678 21 0 24.68 0 29.202A2.802 2.802 0 0 0 2.799 32h23.4A2.803 2.803 0 0 0 29 29.202C29 24.68 25.32 21 20.799 21zM15.231 2.639a4.404 4.404 0 0 1 2.269-.638c3.032 0 5.5 3.196 5.5 7.124 0 .705-.078 1.396-.232 2.057a.999.999 0 1 0 1.946.457c.188-.811.286-1.656.286-2.514C25 4.094 21.637 0 17.5 0a6.464 6.464 0 0 0-3.286.917 1 1 0 0 0 1.017 1.722zM24 17a1 1 0 1 0 0 2c3.419 0 6 2.85 6 6.268a.769.769 0 0 1-.068.326 1 1 0 0 0 1.828.812c.159-.359.24-.742.24-1.141C32 20.747 28.521 17 24 17z" fill="#c7b299"/></svg>